<svg width="163" height="39" viewBox="0 0 163 39" fill="none" xmlns="http://www.w3.org/2000/svg">
<path d="M49.8167 22.2367C49.8167 23.4018 50.3289 24.5024 51.3532 25.5387C52.3776 26.575 54.2102 27.0942 56.8512 27.0962C59.012 27.0693 61.1699 26.933 63.3165 26.6882V29.7783C60.2161 30.2476 57.8576 30.4823 56.241 30.4823C52.9972 30.4823 50.429 29.6402 48.5363 27.956C46.6436 26.2718 45.6951 23.7797 45.6909 20.4798C45.6909 17.1799 46.6036 14.7201 48.4288 13.1002C50.2541 11.4804 52.5725 10.6715 55.3842 10.6736C58.1959 10.6736 60.4785 11.5157 62.2321 13.1999C63.9857 14.8841 64.8636 17.3108 64.8657 20.4798V21.1371C64.8657 21.8598 64.5211 22.2243 63.8382 22.2243L49.8167 22.2367ZM60.7557 19.05C60.66 17.7372 60.1542 16.4858 59.3077 15.4677C58.4857 14.5186 57.1484 14.0431 55.2957 14.041C53.443 14.0389 52.0635 14.5467 51.1572 15.5642C50.2864 16.5217 49.8085 17.7643 49.8167 19.05H60.7557Z" fill="#030A05"/>
<path d="M80.6859 17.9814C80.6859 16.4674 80.3571 15.4291 79.6995 14.8663C79.0419 14.3035 78.0934 14.0252 76.8541 14.0315C75.6063 14.0315 74.6579 14.2776 74.0087 14.7697C73.3595 15.2619 73.0307 16.3293 73.0223 17.972V30.2672H68.9565V17.8381C68.9565 14.9909 69.6732 13.0814 71.1064 12.1095C72.5396 11.1376 74.3596 10.6516 76.5664 10.6516C79.5467 10.6516 81.5964 11.5581 82.7156 13.3711C83.8327 11.5581 85.8887 10.6516 88.8838 10.6516C91.0779 10.6516 92.8873 11.1376 94.3121 12.1095C95.7369 13.0814 96.4504 14.9909 96.4525 17.8381V30.2672H92.412V17.9814C92.412 16.3408 92.0832 15.2733 91.4256 14.7791C90.768 14.2848 89.8196 14.0387 88.5803 14.0408C87.3304 14.0408 86.3819 14.3191 85.7349 14.8756C85.0878 15.4322 84.759 16.4706 84.7485 17.9907V30.2859H80.6859V17.9814Z" fill="#030A05"/>
<path d="M106.035 5.25013C106.079 5.92364 105.868 6.58923 105.444 7.11917C105.05 7.55113 104.4 7.7671 103.493 7.7671C102.587 7.7671 101.929 7.55113 101.521 7.11917C101.095 6.58993 100.884 5.92382 100.929 5.25013C100.929 4.44644 101.126 3.84108 101.521 3.43405C101.915 3.02701 102.572 2.81934 103.493 2.81104C104.398 2.81104 105.048 3.01871 105.444 3.43405C105.852 3.83589 106.035 4.44021 106.035 5.25013ZM101.46 10.8573V30.2766H105.501V10.8573H101.46Z" fill="#030A05"/>
<path d="M110.373 2.3313H114.414V25.2862C114.414 26.4887 114.992 27.0899 116.149 27.0899H117.667V30.0803C116.77 30.3362 115.841 30.4673 114.907 30.4697C111.884 30.4697 110.373 29.1105 110.373 26.3921V2.3313Z" fill="#030A05"/>
<path d="M125.811 5.25013C125.856 5.92382 125.645 6.58993 125.22 7.11917C124.825 7.55113 124.175 7.7671 123.269 7.7671C122.363 7.7671 121.705 7.55113 121.296 7.11917C120.872 6.58923 120.661 5.92364 120.705 5.25013C120.705 4.44644 120.904 3.84212 121.296 3.43405C121.688 3.02597 122.349 2.81104 123.269 2.81104C124.189 2.81104 124.824 3.01351 125.22 3.43405C125.615 3.85458 125.811 4.44021 125.811 5.25013ZM121.239 10.8573V30.2766H125.28V10.8573H121.239Z" fill="#030A05"/>
<path d="M136.566 22.2274C134.811 21.953 133.135 21.3161 131.647 20.3584C130.281 19.4508 129.598 18.0916 129.598 16.2807C129.598 14.3411 130.281 12.9175 131.647 12.01C133.013 11.1025 135.121 10.6487 137.97 10.6487C140.416 10.6838 142.853 10.9635 145.242 11.4835V14.4553C142.099 14.1729 139.682 14.0306 137.989 14.0285C136.4 14.0285 135.277 14.2102 134.619 14.5737C134.308 14.7325 134.049 14.9761 133.874 15.2753C133.7 15.5746 133.616 15.9171 133.633 16.262C133.633 16.91 134.054 17.4292 134.897 17.8196C135.74 18.21 137.124 18.5786 139.048 18.9254C140.807 19.1981 142.487 19.8351 143.977 20.7945C145.343 21.6999 146.026 23.0591 146.026 24.8721C146.026 26.8159 145.343 28.2405 143.977 29.146C142.611 30.0514 140.504 30.5041 137.654 30.5041C135.078 30.4592 132.511 30.1797 129.987 29.6693V26.6819C133.389 26.9685 135.938 27.1108 137.635 27.1087C139.222 27.1087 140.346 26.928 141.005 26.5667C141.318 26.404 141.577 26.1565 141.751 25.8534C141.925 25.5503 142.008 25.2044 141.988 24.8565C141.988 24.2335 141.562 23.7143 140.708 23.299C139.854 22.8836 138.474 22.5264 136.566 22.2274Z" fill="#030A05"/>
<path d="M148.938 14.2341V10.8574H151.783V5.41846H155.804V10.8574H162.725V14.2341H155.804V24.1182C155.804 26.0994 156.58 27.09 158.131 27.09H163V30.0805C161.172 30.3162 159.333 30.4503 157.489 30.4823C153.679 30.4823 151.774 28.7347 151.777 25.2396V14.2341H148.938Z" fill="#030A05"/>
<path d="M32.169 26.1523C27.7043 27.4673 22.9064 27.135 18.6723 25.2178C18.1459 24.9566 17.7428 24.5045 17.5478 23.9564C17.3528 23.4084 17.3812 22.8072 17.6269 22.2793C17.8727 21.7515 18.3166 21.3381 18.8654 21.1263C19.4142 20.9144 20.025 20.9205 20.5692 21.1433C22.8889 22.1926 25.4473 22.6243 27.9891 22.3953C30.531 22.1663 32.9674 21.2845 35.0554 19.838L35.242 19.7072C36.0899 19.1005 36.727 18.2508 37.0665 17.274C37.406 16.2973 37.4313 15.2411 37.1389 14.2496V14.2185C35.8134 9.86417 32.9228 6.1351 29.0081 3.72933C25.0934 1.32355 20.423 0.406016 15.8712 1.14847C11.3194 1.89093 7.1982 4.24248 4.27918 7.76291C1.36016 11.2834 -0.156607 15.7313 0.0128014 20.2742C0.182209 24.8171 2.02618 29.1434 5.19954 32.4432C8.37289 35.7431 12.6581 37.7903 17.2529 38.2017C21.8477 38.613 26.4372 37.3602 30.1622 34.6779C33.8872 31.9955 36.4923 28.0675 37.4898 23.6291C35.8602 24.7377 34.065 25.589 32.169 26.1523Z" fill="url(#paint0_linear_136_917)"/>
<defs>
<linearGradient id="paint0_linear_136_917" x1="28.4573" y1="3.39672" x2="9.91249" y2="36.0001" gradientUnits="userSpaceOnUse">
<stop stop-color="#9EF769"/>
<stop offset="1" stop-color="#3AD87E"/>
</linearGradient>
</defs>
</svg>
