<svg width="28" height="28" viewBox="0 0 28 28" fill="none" xmlns="http://www.w3.org/2000/svg">
<rect width="28" height="28" rx="4" fill="#ECF1FF"/>
<path d="M18.0001 11.5H14.6251V16.7083C14.6251 17.05 14.3417 17.3333 14.0001 17.3333C13.6584 17.3333 13.3751 17.05 13.3751 16.7083V11.5H10.0001C7.33341 11.5 5.66675 13.1667 5.66675 15.8333V17.9917C5.66675 20.6667 7.33341 22.3333 10.0001 22.3333H17.9917C20.6584 22.3333 22.3251 20.6667 22.3251 18V15.8333C22.3334 13.1667 20.6667 11.5 18.0001 11.5Z" fill="#6667FF"/>
<path d="M14.625 7.8002L16.35 9.5252C16.475 9.6502 16.6334 9.70853 16.7917 9.70853C16.95 9.70853 17.1084 9.6502 17.2334 9.5252C17.475 9.28353 17.475 8.88353 17.2334 8.64186L14.4417 5.8502C14.2 5.60853 13.8 5.60853 13.5584 5.8502L10.7667 8.64186C10.525 8.88353 10.525 9.28353 10.7667 9.5252C11.0084 9.76686 11.4084 9.76686 11.65 9.5252L13.375 7.8002V11.5002H14.625V7.8002Z" fill="#6667FF"/>
</svg>
