<svg width="32" height="32" viewBox="0 0 32 32" fill="none" xmlns="http://www.w3.org/2000/svg">
<rect x="0.5" y="0.5" width="31" height="31" rx="2.5" stroke="#D0CFCF"/>
<path d="M12.2838 22.6359C12.4938 22.5129 12.7233 22.3929 12.9723 22.2789C12.762 22.5925 12.5367 22.8959 12.2973 23.1879C11.8773 23.6934 11.5503 23.9619 11.3448 24.0459C11.3278 24.0531 11.3102 24.0591 11.2923 24.0639C11.2773 24.0431 11.2643 24.021 11.2533 23.9979C11.1693 23.8329 11.1723 23.6739 11.3133 23.4579C11.4723 23.2104 11.7918 22.9269 12.2838 22.6359ZM15.9663 20.1654C15.7878 20.2029 15.6108 20.2404 15.4323 20.2824C15.6967 19.7644 15.9468 19.2392 16.1823 18.7074C16.4194 19.1468 16.6746 19.5762 16.9473 19.9944C16.6218 20.0424 16.2933 20.0994 15.9663 20.1654ZM19.7538 21.5739C19.5208 21.386 19.3027 21.1804 19.1013 20.9589C19.4433 20.9664 19.7523 20.9919 20.0193 21.0399C20.4948 21.1254 20.7183 21.2604 20.7963 21.3534C20.8209 21.3794 20.8348 21.4137 20.8353 21.4494C20.8301 21.5552 20.7992 21.6582 20.7453 21.7494C20.7151 21.8225 20.6665 21.8866 20.6043 21.9354C20.5734 21.9544 20.5369 21.9623 20.5008 21.9579C20.3658 21.9534 20.1138 21.8589 19.7538 21.5739ZM16.4163 14.4549C16.3563 14.8209 16.2543 15.2409 16.1163 15.6984C16.0655 15.5271 16.0209 15.354 15.9828 15.1794C15.8688 14.6499 15.8523 14.2344 15.9138 13.9464C15.9708 13.6809 16.0788 13.5744 16.2078 13.5219C16.277 13.4914 16.3503 13.4712 16.4253 13.4619C16.4448 13.5069 16.4673 13.5999 16.4733 13.7589C16.4808 13.9419 16.4628 14.1744 16.4163 14.4564V14.4549Z" fill="#303632"/>
<path fill-rule="evenodd" clip-rule="evenodd" d="M10 4H17.9395C18.3373 4.00008 18.7188 4.15818 19 4.4395L24.5605 10C24.8418 10.2812 24.9999 10.6627 25 11.0605V25C25 25.7956 24.6839 26.5587 24.1213 27.1213C23.5587 27.6839 22.7956 28 22 28H10C9.20435 28 8.44129 27.6839 7.87868 27.1213C7.31607 26.5587 7 25.7956 7 25V7C7 6.20435 7.31607 5.44129 7.87868 4.87868C8.44129 4.31607 9.20435 4 10 4V4ZM18.25 6.25V9.25C18.25 9.64782 18.408 10.0294 18.6893 10.3107C18.9706 10.592 19.3522 10.75 19.75 10.75H22.75L18.25 6.25ZM10.2475 24.502C10.3825 24.772 10.5925 25.0165 10.9045 25.1305C11.215 25.243 11.5225 25.1905 11.7745 25.0855C12.2515 24.8905 12.727 24.4315 13.1635 23.9065C13.663 23.305 14.188 22.516 14.695 21.6415C15.6738 21.3514 16.6761 21.1476 17.6905 21.0325C18.1405 21.607 18.6055 22.102 19.0555 22.4575C19.4755 22.7875 19.96 23.062 20.4565 23.083C20.7269 23.0964 20.9947 23.0239 21.2215 22.876C21.454 22.7245 21.6265 22.5055 21.7525 22.252C21.8875 21.9805 21.97 21.697 21.9595 21.4075C21.95 21.1221 21.8443 20.8482 21.6595 20.6305C21.3205 20.2255 20.7655 20.0305 20.2195 19.933C19.5572 19.8304 18.8851 19.8052 18.217 19.858C17.6528 19.0604 17.1608 18.214 16.747 17.329C17.122 16.339 17.4025 15.403 17.527 14.638C17.581 14.311 17.6095 13.999 17.599 13.717C17.5971 13.4371 17.532 13.1612 17.4085 12.91C17.3373 12.7714 17.2362 12.6503 17.1125 12.5556C16.9887 12.4609 16.8454 12.3949 16.693 12.3625C16.39 12.298 16.078 12.3625 15.7915 12.478C15.226 12.703 14.9275 13.183 14.815 13.7125C14.7055 14.2225 14.755 14.8165 14.884 15.4165C15.016 16.0255 15.241 16.6885 15.529 17.359C15.0683 18.5047 14.5363 19.6204 13.936 20.6995C13.163 20.9427 12.4178 21.267 11.713 21.667C11.158 21.997 10.6645 22.387 10.3675 22.8475C10.0525 23.3365 9.955 23.9185 10.2475 24.502Z" fill="#303632"/>
</svg>
