<svg width="20" height="20" viewBox="0 0 20 20" fill="none" xmlns="http://www.w3.org/2000/svg">
<path d="M13.491 1.66663H6.50768C3.47435 1.66663 1.66602 3.47496 1.66602 6.50829V13.4833C1.66602 16.525 3.47435 18.3333 6.50768 18.3333H13.4827C16.516 18.3333 18.3243 16.525 18.3243 13.4916V6.50829C18.3327 3.47496 16.5243 1.66663 13.491 1.66663ZM13.9827 8.08329L9.25768 12.8083C9.14102 12.925 8.98268 12.9916 8.81602 12.9916C8.64935 12.9916 8.49102 12.925 8.37435 12.8083L6.01602 10.45C5.77435 10.2083 5.77435 9.80829 6.01602 9.56663C6.25768 9.32496 6.65768 9.32496 6.89935 9.56663L8.81602 11.4833L13.0993 7.19996C13.341 6.95829 13.741 6.95829 13.9827 7.19996C14.2243 7.44163 14.2243 7.83329 13.9827 8.08329Z" fill="#25C269"/>
</svg>
