<svg width="29" height="28" viewBox="0 0 29 28" fill="none" xmlns="http://www.w3.org/2000/svg">
<rect x="0.5" width="28" height="28" rx="4" fill="#F0FDF5"/>
<path d="M17.9917 5.66699H11.0084C7.97508 5.66699 6.16675 7.47533 6.16675 10.5087V17.4837C6.16675 20.5253 7.97508 22.3337 11.0084 22.3337H17.9834C21.0167 22.3337 22.8251 20.5253 22.8251 17.492V10.5087C22.8334 7.47533 21.0251 5.66699 17.9917 5.66699ZM18.8751 14.2753C18.8751 14.617 18.5917 14.9003 18.2501 14.9003C17.9084 14.9003 17.6251 14.617 17.6251 14.2753V11.7587L11.1917 18.192C11.0667 18.317 10.9084 18.3753 10.7501 18.3753C10.5917 18.3753 10.4334 18.317 10.3084 18.192C10.0667 17.9503 10.0667 17.5503 10.3084 17.3087L16.7417 10.8753H14.2251C13.8834 10.8753 13.6001 10.592 13.6001 10.2503C13.6001 9.90866 13.8834 9.62533 14.2251 9.62533H18.2501C18.5917 9.62533 18.8751 9.90866 18.8751 10.2503V14.2753Z" fill="#25C269"/>
</svg>
