<svg width="16" height="18" viewBox="0 0 16 18" fill="none" xmlns="http://www.w3.org/2000/svg">
<path d="M7.11658 17.875C6.71658 17.875 6.32492 17.775 5.95825 17.575C5.22492 17.1667 4.78325 16.425 4.78325 15.5917V11.175C4.78325 10.7583 4.50825 10.1333 4.24992 9.81667L1.13325 6.51667C0.608252 5.99167 0.208252 5.09167 0.208252 4.41667V2.5C0.208252 1.16667 1.21659 0.125 2.49992 0.125H13.4999C14.7666 0.125 15.7916 1.15 15.7916 2.41667V4.25C15.7916 5.125 15.2666 6.11667 14.7749 6.60833L11.1666 9.8C10.8166 10.0917 10.5416 10.7333 10.5416 11.25V14.8333C10.5416 15.575 10.0749 16.4333 9.49158 16.7833L8.34159 17.525C7.96659 17.7583 7.54158 17.875 7.11658 17.875ZM2.49992 1.375C1.91659 1.375 1.45825 1.86667 1.45825 2.5V4.41667C1.45825 4.725 1.70825 5.325 2.02492 5.64167L5.19992 8.98333C5.62492 9.50833 6.04158 10.3833 6.04158 11.1667V15.5833C6.04158 16.125 6.41659 16.3917 6.57492 16.475C6.92492 16.6667 7.34992 16.6667 7.67492 16.4667L8.83325 15.725C9.06659 15.5833 9.29992 15.1333 9.29992 14.8333V11.25C9.29992 10.3583 9.73325 9.375 10.3583 8.85L13.9249 5.69167C14.2083 5.40833 14.5499 4.73333 14.5499 4.24167V2.41667C14.5499 1.84167 14.0833 1.375 13.5083 1.375H2.49992V1.375Z" fill="#474C48"/>
</svg>
