<svg width="37" height="38" viewBox="0 0 37 38" fill="none" xmlns="http://www.w3.org/2000/svg">
<circle cx="18.5" cy="18.75" r="18.5" fill="#054753"/>
<path d="M30.3793 18.6121C30.3793 23.7824 29.6983 27.9737 18.1896 27.9737C8.19804 27.9737 6.36764 24.8146 6.05871 20.5984C6.01181 19.9582 6 19.2937 6 18.6121C6 14.5163 6.42737 11.0348 12.3263 9.76469C13.8738 9.43152 15.7979 9.25049 18.1897 9.25049C20.6955 9.25049 22.688 9.44916 24.2719 9.81344C29.9625 11.1221 30.3793 14.5676 30.3793 18.6121Z" fill="#BCF6D4"/>
<path d="M7.79735 18.4186C8.70413 18.4186 9.45878 17.7203 9.52796 16.8161C9.61492 15.6797 9.82705 14.8802 10.2987 14.3834C10.5222 14.1481 10.9214 13.8522 11.6311 13.5755C12.4194 13.2683 12.872 12.4405 12.692 11.6138C12.6895 11.6025 12.687 11.5912 12.6845 11.5799C12.4593 10.5475 11.3641 9.95257 10.379 10.3348C7.12827 11.5963 6.27568 13.854 6.06584 16.5522C5.98758 17.5593 6.78728 18.4186 7.79735 18.4186Z" fill="#DDFBE9"/>
<path d="M6.86893 13.2847C6.67546 13.665 6.52426 14.0658 6.40645 14.4843C6.10813 15.5433 6.84576 16.6118 7.94278 16.6954C8.76235 16.7579 9.52061 16.2388 9.74188 15.4472C9.79996 15.2394 9.86972 15.0517 9.95338 14.8836C10.1492 14.4899 10.1998 14.0399 10.0801 13.6168C9.65239 12.105 7.58129 11.8843 6.86893 13.2847Z" fill="#F0FDF5"/>
<path d="M30.3823 18.612C30.3823 23.7823 29.7011 27.9739 18.1924 27.9739C8.68344 27.9739 6.56595 25.1123 6.11719 21.2014C8.51961 23.7564 11.9301 25.3518 15.7136 25.3518C22.944 25.3518 28.8135 19.5249 28.8821 12.3113C30.2325 13.9745 30.3823 16.1851 30.3823 18.612Z" fill="#88EDB3"/>
<path d="M18.1899 24.9208C23.5836 24.9208 27.956 22.3973 27.956 19.2845C27.956 16.1717 23.5836 13.6482 18.1899 13.6482C12.7963 13.6482 8.42383 16.1717 8.42383 19.2845C8.42383 22.3973 12.7963 24.9208 18.1899 24.9208Z" fill="#176439"/>
<path d="M27.9554 19.2843C27.9554 22.3972 23.5831 24.9208 18.1896 24.9208C12.7961 24.9208 8.42383 22.3972 8.42383 19.2843C8.42383 19.0484 8.44903 18.816 8.49733 18.5885C9.65795 21.2709 13.3015 23.0265 17.4378 22.6716C22.2693 22.2565 25.9472 19.1205 25.6685 15.6597C27.0958 16.6389 27.9554 17.9046 27.9554 19.2843Z" fill="#155231"/>
<path d="M15.1607 20.9532C15.1461 20.9532 15.1315 20.9529 15.1167 20.952C14.6697 20.9281 14.3267 20.5464 14.3507 20.0993C14.3701 19.7368 14.1144 19.4157 13.7559 19.3524C13.3977 19.2895 13.0474 19.5035 12.9416 19.8509C12.8112 20.2791 12.3584 20.5205 11.9301 20.3902C11.5019 20.2597 11.2604 19.8068 11.3908 19.3786C11.7351 18.2482 12.873 17.5505 14.0374 17.756C15.202 17.9613 16.0325 19.006 15.9694 20.186C15.9463 20.6183 15.5885 20.9532 15.1607 20.9532Z" fill="#25C269"/>
<path d="M21.2183 20.9532C20.7905 20.9532 20.4328 20.6183 20.4096 20.186C20.3464 19.006 21.177 17.9614 22.3416 17.756C23.506 17.5504 24.6439 18.2482 24.9882 19.3787C25.1186 19.8069 24.8772 20.2598 24.4489 20.3902C24.0205 20.5205 23.5678 20.2792 23.4374 19.8509C23.3316 19.5035 22.9814 19.2891 22.6231 19.3525C22.2647 19.4157 22.0089 19.7368 22.0283 20.0994C22.0523 20.5464 21.7093 20.9281 21.2623 20.9521C21.2475 20.9528 21.2328 20.9532 21.2183 20.9532Z" fill="#25C269"/>
<path d="M23.7256 9.6973C23.1337 10.951 20.8797 11.884 18.1899 11.884C15.5002 11.884 13.2462 10.951 12.6543 9.6973C14.1435 9.40672 15.9643 9.25 18.1899 9.25C20.4156 9.25 22.2364 9.40672 23.7256 9.6973Z" fill="#F0FDF5"/>
<path d="M23.7253 9.6971C23.1335 10.9508 20.8797 11.8835 18.1898 11.8835C16.1943 11.8835 14.4386 11.3703 13.4238 10.5931C14.2927 10.9661 15.3449 11.1835 16.4784 11.1835C18.5641 11.1835 20.3733 10.4465 21.2735 9.36792C22.1771 9.44358 22.9918 9.55403 23.7253 9.6971Z" fill="#88EDB3"/>
</svg>
