<svg width="40" height="40" viewBox="0 0 40 40" fill="none" xmlns="http://www.w3.org/2000/svg">
<circle cx="20" cy="20" r="20" fill="#DDFBE9"/>
<circle cx="20" cy="20" r="16" fill="#BCF6D4"/>
<path d="M20 20.2501C19.56 20.2501 19.12 20.1401 18.72 19.9301L12.21 16.4201C11.62 16.1001 11.25 15.4701 11.25 14.7701C11.25 14.0701 11.62 13.4401 12.21 13.1201L18.72 9.6101C19.52 9.1801 20.48 9.1801 21.27 9.6101L27.78 13.1201C28.37 13.4401 28.74 14.0701 28.74 14.7701C28.74 15.4701 28.37 16.1001 27.78 16.4201L21.27 19.9301C20.88 20.1501 20.44 20.2501 20 20.2501ZM20 10.7801C19.81 10.7801 19.61 10.8301 19.43 10.9301L12.93 14.4301C12.76 14.5201 12.75 14.7101 12.75 14.7701C12.75 14.8301 12.76 15.0201 12.93 15.1001L19.44 18.6101C19.8 18.8001 20.21 18.8001 20.57 18.6101L27.08 15.1001C27.24 15.0101 27.26 14.8201 27.26 14.7701C27.26 14.7101 27.25 14.5201 27.08 14.4401L20.57 10.9301C20.39 10.8301 20.19 10.7801 20 10.7801Z" fill="#054753"/>
<path d="M17.78 30.72C17.5 30.72 17.21 30.65 16.95 30.52L10.89 27.5C9.88 26.99 9.25 25.97 9.25 24.84V19.12C9.25 18.47 9.58 17.88 10.13 17.54C10.69 17.2 11.36 17.17 11.94 17.46L18 20.48C19.01 20.99 19.64 22 19.64 23.14V28.86C19.64 29.51 19.31 30.1 18.76 30.44C18.46 30.63 18.12 30.72 17.78 30.72ZM11.11 18.76C11.03 18.76 10.96 18.79 10.92 18.81C10.86 18.85 10.75 18.94 10.75 19.12V24.84C10.75 25.4 11.06 25.91 11.56 26.16L17.61 29.19C17.77 29.27 17.9 29.21 17.96 29.18C18.02 29.14 18.13 29.05 18.13 28.87V23.15C18.13 22.59 17.82 22.08 17.32 21.83L11.27 18.8C11.21 18.77 11.16 18.76 11.11 18.76Z" fill="#054753"/>
<path d="M22.2194 30.72C21.8794 30.72 21.5394 30.63 21.2394 30.44C20.6894 30.1 20.3594 29.51 20.3594 28.86V23.14C20.3594 22.01 20.9894 20.99 21.9994 20.48L28.0494 17.45C28.6294 17.16 29.3094 17.19 29.8594 17.53C30.4094 17.87 30.7394 18.46 30.7394 19.11V24.83C30.7394 25.96 30.1094 26.98 29.0994 27.49L23.0494 30.52C22.7894 30.66 22.4994 30.72 22.2194 30.72ZM28.8894 18.76C28.8394 18.76 28.7894 18.77 28.7294 18.8L22.6794 21.83C22.1794 22.08 21.8694 22.58 21.8694 23.15V28.87C21.8694 29.05 21.9794 29.14 22.0394 29.18C22.0994 29.22 22.2294 29.27 22.3894 29.19L28.4394 26.16C28.9394 25.91 29.2494 25.4 29.2494 24.84V19.12C29.2494 18.94 29.1394 18.85 29.0794 18.81C29.0394 18.79 28.9694 18.76 28.8894 18.76Z" fill="#054753"/>
</svg>
