<svg width="40" height="40" viewBox="0 0 40 40" fill="none" xmlns="http://www.w3.org/2000/svg">
<circle cx="20" cy="20" r="20" fill="#DDFBE9"/>
<circle cx="20" cy="20" r="16" fill="#BCF6D4"/>
<path d="M24.0002 30.75H16.0002C11.3802 30.75 10.5202 28.6 10.3002 26.51L9.55023 18.5C9.44023 17.45 9.41023 15.9 10.4502 14.74C11.3502 13.74 12.8402 13.26 15.0002 13.26H25.0002C27.1702 13.26 28.6602 13.75 29.5502 14.74C30.5902 15.9 30.5602 17.45 30.4502 18.51L29.7002 26.5C29.4802 28.6 28.6202 30.75 24.0002 30.75ZM15.0002 14.75C13.3102 14.75 12.1502 15.08 11.5602 15.74C11.0702 16.28 10.9102 17.11 11.0402 18.35L11.7902 26.36C11.9602 27.94 12.3902 29.25 16.0002 29.25H24.0002C27.6002 29.25 28.0402 27.94 28.2102 26.35L28.9602 18.36C29.0902 17.11 28.9302 16.28 28.4402 15.74C27.8502 15.08 26.6902 14.75 25.0002 14.75H15.0002Z" fill="#054753"/>
<path d="M24 14.75C23.59 14.75 23.25 14.41 23.25 14V13.2C23.25 11.42 23.25 10.75 20.8 10.75H19.2C16.75 10.75 16.75 11.42 16.75 13.2V14C16.75 14.41 16.41 14.75 16 14.75C15.59 14.75 15.25 14.41 15.25 14V13.2C15.25 11.44 15.25 9.25 19.2 9.25H20.8C24.75 9.25 24.75 11.44 24.75 13.2V14C24.75 14.41 24.41 14.75 24 14.75Z" fill="#054753"/>
<path d="M20 24.75C17.25 24.75 17.25 23.05 17.25 22.03V21C17.25 19.59 17.59 19.25 19 19.25H21C22.41 19.25 22.75 19.59 22.75 21V22C22.75 23.04 22.75 24.75 20 24.75ZM18.75 20.75C18.75 20.83 18.75 20.92 18.75 21V22.03C18.75 23.06 18.75 23.25 20 23.25C21.25 23.25 21.25 23.09 21.25 22.02V21C21.25 20.92 21.25 20.83 21.25 20.75C21.17 20.75 21.08 20.75 21 20.75H19C18.92 20.75 18.83 20.75 18.75 20.75Z" fill="#054753"/>
<path d="M21.9995 22.77C21.6295 22.77 21.2995 22.49 21.2595 22.11C21.2095 21.7 21.4995 21.32 21.9095 21.27C24.5495 20.94 27.0795 19.94 29.2095 18.39C29.5395 18.14 30.0095 18.22 30.2595 18.56C30.4995 18.89 30.4295 19.36 30.0895 19.61C27.7495 21.31 24.9895 22.4 22.0895 22.77C22.0595 22.77 22.0295 22.77 21.9995 22.77Z" fill="#054753"/>
<path d="M18.0007 22.7799C17.9707 22.7799 17.9407 22.7799 17.9107 22.7799C15.1707 22.4699 12.5007 21.4699 10.1907 19.8899C9.85072 19.6599 9.76072 19.1899 9.99072 18.8499C10.2207 18.5099 10.6907 18.4199 11.0307 18.6499C13.1407 20.0899 15.5707 20.9999 18.0707 21.2899C18.4807 21.3399 18.7807 21.7099 18.7307 22.1199C18.7007 22.4999 18.3807 22.7799 18.0007 22.7799Z" fill="#054753"/>
</svg>
