<svg width="40" height="40" viewBox="0 0 40 40" fill="none" xmlns="http://www.w3.org/2000/svg">
<circle cx="20" cy="20" r="20" fill="#DDFBE9"/>
<circle cx="20" cy="20" r="16" fill="#BCF6D4"/>
<path d="M26.1008 18.9584H13.9091C12.3341 18.9584 11.0508 17.6751 11.0508 16.1001V13.9084C11.0508 12.3334 12.3341 11.05 13.9091 11.05H26.1008C27.6758 11.05 28.9591 12.3334 28.9591 13.9084V16.1001C28.9591 17.6751 27.6758 18.9584 26.1008 18.9584ZM13.9008 12.2917C13.0091 12.2917 12.2925 13.0167 12.2925 13.9V16.0917C12.2925 16.9834 13.0174 17.7001 13.9008 17.7001H26.0925C26.9841 17.7001 27.7008 16.9751 27.7008 16.0917V13.9C27.7008 13.0084 26.9758 12.2917 26.0925 12.2917H13.9008Z" fill="#054753"/>
<path d="M26.1008 28.9584H13.9091C12.3341 28.9584 11.0508 27.6751 11.0508 26.1001V23.9084C11.0508 22.3334 12.3341 21.05 13.9091 21.05H26.1008C27.6758 21.05 28.9591 22.3334 28.9591 23.9084V26.1001C28.9591 27.6751 27.6758 28.9584 26.1008 28.9584ZM13.9008 22.2917C13.0091 22.2917 12.2925 23.0167 12.2925 23.9V26.0917C12.2925 26.9834 13.0174 27.7001 13.9008 27.7001H26.0925C26.9841 27.7001 27.7008 26.9751 27.7008 26.0917V23.9C27.7008 23.0084 26.9758 22.2917 26.0925 22.2917H13.9008Z" fill="#054753"/>
<path d="M15 16.4584C14.6583 16.4584 14.375 16.1751 14.375 15.8334V14.1667C14.375 13.8251 14.6583 13.5417 15 13.5417C15.3417 13.5417 15.625 13.8251 15.625 14.1667V15.8334C15.625 16.1751 15.3417 16.4584 15 16.4584Z" fill="#054753"/>
<path d="M18.334 16.4584C17.9923 16.4584 17.709 16.1751 17.709 15.8334V14.1667C17.709 13.8251 17.9923 13.5417 18.334 13.5417C18.6757 13.5417 18.959 13.8251 18.959 14.1667V15.8334C18.959 16.1751 18.6757 16.4584 18.334 16.4584Z" fill="#054753"/>
<path d="M15 26.4584C14.6583 26.4584 14.375 26.1751 14.375 25.8334V24.1667C14.375 23.8251 14.6583 23.5417 15 23.5417C15.3417 23.5417 15.625 23.8251 15.625 24.1667V25.8334C15.625 26.1751 15.3417 26.4584 15 26.4584Z" fill="#054753"/>
<path d="M18.334 26.4584C17.9923 26.4584 17.709 26.1751 17.709 25.8334V24.1667C17.709 23.8251 17.9923 23.5417 18.334 23.5417C18.6757 23.5417 18.959 23.8251 18.959 24.1667V25.8334C18.959 26.1751 18.6757 26.4584 18.334 26.4584Z" fill="#054753"/>
<path d="M24.9993 15.625H21.666C21.3243 15.625 21.041 15.3417 21.041 15C21.041 14.6583 21.3243 14.375 21.666 14.375H24.9993C25.341 14.375 25.6243 14.6583 25.6243 15C25.6243 15.3417 25.341 15.625 24.9993 15.625Z" fill="#054753"/>
<path d="M24.9993 25.625H21.666C21.3243 25.625 21.041 25.3417 21.041 25C21.041 24.6583 21.3243 24.375 21.666 24.375H24.9993C25.341 24.375 25.6243 24.6583 25.6243 25C25.6243 25.3417 25.341 25.625 24.9993 25.625Z" fill="#054753"/>
</svg>
