<svg width="40" height="40" viewBox="0 0 40 40" fill="none" xmlns="http://www.w3.org/2000/svg">
<circle cx="20" cy="20" r="20" fill="#DDFBE9"/>
<circle cx="20" cy="20" r="16" fill="#BCF6D4"/>
<path d="M22.9707 30.75H16.9707C11.5407 30.75 9.2207 28.43 9.2207 23V17C9.2207 11.57 11.5407 9.25 16.9707 9.25H18.9707C19.3807 9.25 19.7207 9.59 19.7207 10C19.7207 10.41 19.3807 10.75 18.9707 10.75H16.9707C12.3607 10.75 10.7207 12.39 10.7207 17V23C10.7207 27.61 12.3607 29.25 16.9707 29.25H22.9707C27.5807 29.25 29.2207 27.61 29.2207 23V21C29.2207 20.59 29.5607 20.25 29.9707 20.25C30.3807 20.25 30.7207 20.59 30.7207 21V23C30.7207 28.43 28.4107 30.75 22.9707 30.75Z" fill="#054753"/>
<path d="M20.7796 23.2399C20.6296 23.2399 20.4896 23.1999 20.3596 23.1099C20.1496 22.9699 20.0296 22.7399 20.0296 22.4899C20.0296 22.3799 20.0196 22.2599 19.9996 22.1399C19.9296 21.6099 19.6896 21.1399 19.2896 20.7299C18.8796 20.3199 18.3796 20.0599 17.8296 19.9899C17.7496 19.9799 17.6196 19.9699 17.4996 19.9799C17.2496 19.9999 16.9996 19.8899 16.8496 19.6899C16.6996 19.4899 16.6596 19.2199 16.7396 18.9799C16.8596 18.6399 17.0496 18.3199 17.2696 18.0699L18.4996 16.5299C20.6396 13.8599 24.9496 10.6599 28.1296 9.38989C28.8596 9.10989 29.6296 9.26989 30.1596 9.79989C30.7096 10.3499 30.8696 11.1299 30.5796 11.8399C29.3096 15.0099 26.1096 19.3299 23.4496 21.4599L21.8796 22.7199C21.5696 22.9399 21.3196 23.0899 21.0596 23.1899C20.9696 23.2199 20.8696 23.2399 20.7796 23.2399ZM18.7196 18.6699C19.3296 18.8699 19.8796 19.2099 20.3496 19.6699C20.8096 20.1299 21.1396 20.6599 21.3296 21.2299L22.5096 20.2799C24.9996 18.2799 27.9996 14.2399 29.1896 11.2699C29.2696 11.0799 29.1796 10.9399 29.0996 10.8499C29.0496 10.7999 28.9096 10.6899 28.6796 10.7799C25.7196 11.9699 21.6796 14.9699 19.6796 17.4599L18.7196 18.6699Z" fill="#054753"/>
<path d="M15.701 26.75C15.061 26.75 14.451 26.5 13.991 26.04C13.461 25.51 13.201 24.78 13.291 24.03L13.501 22.07C13.721 20.04 15.371 18.54 17.441 18.5C17.601 18.49 17.801 18.5 17.991 18.51C18.901 18.63 19.711 19.03 20.351 19.68C20.991 20.32 21.381 21.08 21.491 21.94C21.521 22.13 21.531 22.32 21.531 22.5C21.531 23.59 21.111 24.62 20.341 25.39C19.711 26.02 18.891 26.41 17.961 26.53L15.981 26.74C15.881 26.75 15.791 26.75 15.701 26.75ZM17.601 19.99C17.571 19.99 17.531 19.99 17.501 19.99C16.351 20.02 15.141 20.79 14.991 22.23L14.781 24.2C14.751 24.49 14.851 24.78 15.051 24.98C15.251 25.18 15.531 25.28 15.811 25.25L17.781 25.04C18.361 24.97 18.881 24.72 19.271 24.33C19.751 23.84 20.021 23.2 20.021 22.5C20.021 22.39 20.011 22.27 19.991 22.15C19.921 21.62 19.681 21.15 19.281 20.74C18.871 20.33 18.371 20.07 17.821 20C17.771 19.99 17.691 19.99 17.601 19.99Z" fill="#054753"/>
<path d="M23.8193 20.7299C23.4093 20.7299 23.0693 20.3899 23.0693 19.9799C23.0693 18.3099 21.7093 16.9399 20.0293 16.9399C19.6193 16.9399 19.2793 16.5999 19.2793 16.1899C19.2793 15.7799 19.6193 15.4399 20.0293 15.4399C22.5293 15.4399 24.5693 17.4699 24.5693 19.9799C24.5693 20.3899 24.2393 20.7299 23.8193 20.7299Z" fill="#054753"/>
</svg>
