<svg width="24" height="24" viewBox="0 0 24 24" fill="none" xmlns="http://www.w3.org/2000/svg">
<path d="M15.75 16.875H15.2812C15.2812 18.6843 13.8093 20.1562 12 20.1562C10.1907 20.1562 8.71875 18.6843 8.71875 16.875H8.25C5.27761 16.875 2.85938 19.2932 2.85938 22.2656V23.2969C2.85938 23.6852 3.17419 24 3.5625 24H20.4375C20.8258 24 21.1406 23.6852 21.1406 23.2969V22.2656C21.1406 19.2932 18.7224 16.875 15.75 16.875Z" fill="#030A05"/>
<path d="M10.125 16.1719V16.875C10.125 17.9105 10.9645 18.75 12 18.75C13.0355 18.75 13.875 17.9105 13.875 16.875V16.1719H10.125Z" fill="#030A05"/>
<path d="M12 2.8125C12.3883 2.8125 12.7031 2.49769 12.7031 2.10938V0.703125C12.7031 0.314812 12.3883 0 12 0C11.6117 0 11.2969 0.314812 11.2969 0.703125V2.10938C11.2969 2.49769 11.6117 2.8125 12 2.8125Z" fill="#030A05"/>
<path d="M6.70369 2.31064L7.40682 3.5285C7.60097 3.86478 8.031 3.98 8.36729 3.78585C8.70357 3.59169 8.81879 3.16166 8.62463 2.82538L7.9215 1.60752C7.72735 1.27124 7.29732 1.15602 6.96103 1.35018C6.62475 1.54433 6.50953 1.97436 6.70369 2.31064Z" fill="#030A05"/>
<path d="M3.52939 5.99963L4.74725 6.70275C5.08353 6.89691 5.51357 6.78169 5.70772 6.44541C5.90188 6.10913 5.78666 5.6791 5.45038 5.48494L4.23252 4.78182C3.89624 4.58766 3.46621 4.70288 3.27205 5.03916C3.07789 5.37544 3.19311 5.80547 3.52939 5.99963Z" fill="#030A05"/>
<path d="M19.7678 4.78182L18.5499 5.48494C18.2136 5.6791 18.0984 6.10913 18.2926 6.44541C18.4867 6.78169 18.9167 6.89691 19.253 6.70275L20.4709 5.99963C20.8072 5.80547 20.9224 5.37544 20.7282 5.03916C20.5341 4.70288 20.104 4.58766 19.7678 4.78182Z" fill="#030A05"/>
<path d="M15.6329 3.78585C15.9692 3.98 16.3992 3.86478 16.5934 3.5285L17.2965 2.31064C17.4907 1.97436 17.3754 1.54433 17.0392 1.35018C16.7029 1.15602 16.2728 1.27124 16.0787 1.60752L15.3756 2.82538C15.1814 3.16166 15.2966 3.59169 15.6329 3.78585Z" fill="#030A05"/>
<path d="M12 4.21875C9.1523 4.21875 6.84375 6.5273 6.84375 9.375C6.84375 11.2075 7.80122 12.8135 9.24211 13.727C9.62845 13.9719 9.90937 14.3415 10.041 14.7656H11.2969V11.0725L10.0965 9.8722C9.82195 9.59761 9.82195 9.15244 10.0965 8.87784C10.3711 8.60325 10.8163 8.60325 11.0909 8.87784L12 9.78689L12.909 8.87784C13.1836 8.60325 13.6288 8.60325 13.9034 8.87784C14.178 9.15244 14.178 9.59761 13.9034 9.8722L12.7031 11.0725V14.7656H13.959C14.0906 14.3415 14.3716 13.9719 14.7579 13.727C16.1988 12.8135 17.1562 11.2075 17.1562 9.375C17.1562 6.5273 14.8477 4.21875 12 4.21875Z" fill="#030A05"/>
</svg>
