<svg width="33" height="32" viewBox="0 0 33 32" fill="none" xmlns="http://www.w3.org/2000/svg">
<path d="M16.7144 28.8666C16.3011 28.8666 15.9011 28.8133 15.5678 28.6933C10.4744 26.9466 2.3811 20.7466 2.3811 11.5866C2.3811 6.91997 6.15444 3.1333 10.7944 3.1333C13.0478 3.1333 15.1544 4.0133 16.7144 5.58663C18.2744 4.0133 20.3811 3.1333 22.6344 3.1333C27.2744 3.1333 31.0478 6.9333 31.0478 11.5866C31.0478 20.76 22.9544 26.9466 17.8611 28.6933C17.5278 28.8133 17.1278 28.8666 16.7144 28.8666ZM10.7944 5.1333C7.2611 5.1333 4.3811 8.02663 4.3811 11.5866C4.3811 20.6933 13.1411 25.76 16.2211 26.8133C16.4611 26.8933 16.9811 26.8933 17.2211 26.8133C20.2878 25.76 29.0611 20.7066 29.0611 11.5866C29.0611 8.02663 26.1811 5.1333 22.6478 5.1333C20.6211 5.1333 18.7411 6.07997 17.5278 7.71997C17.1544 8.22663 16.3011 8.22663 15.9278 7.71997C14.6878 6.06663 12.8211 5.1333 10.7944 5.1333Z" fill="#5E625F"/>
</svg>
