<svg width="24" height="24" viewBox="0 0 24 24" fill="none" xmlns="http://www.w3.org/2000/svg">
<rect x="0.19043" y="0.581543" width="23.2708" height="23.2708" rx="3.3244" fill="#ECECEC"/>
<path d="M16.459 11.8912C16.0643 11.7873 15.6002 11.7319 15.0462 11.7319C14.2774 11.7319 13.9935 11.9189 13.5987 12.2167C13.5779 12.2306 13.5571 12.2514 13.5363 12.2721L12.8784 12.9717C12.3243 13.5534 11.327 13.5604 10.7729 12.9647L10.115 12.2721C10.0942 12.2514 10.0734 12.2306 10.0527 12.2167C9.65789 11.9189 9.37393 11.7319 8.60516 11.7319C8.05109 11.7319 7.58706 11.7873 7.19229 11.8912C5.54395 12.3345 5.54395 13.6435 5.54395 14.7931V15.4373C5.54395 17.1756 5.54394 19.1426 9.24926 19.1426H14.4021C16.8607 19.1426 18.1074 17.8959 18.1074 15.4373V14.7931C18.1074 13.6435 18.1074 12.3345 16.459 11.8912ZM13.4394 16.6493H10.212C9.94877 16.6493 9.73407 16.4346 9.73407 16.1645C9.73407 15.8944 9.94877 15.6797 10.212 15.6797H13.4394C13.7026 15.6797 13.9173 15.8944 13.9173 16.1645C13.9173 16.4346 13.7026 16.6493 13.4394 16.6493Z" fill="#030A05"/>
<path d="M12.2895 6.88396L12.7397 7.33413C12.9198 7.51421 13.2176 7.51421 13.3976 7.33413C13.5777 7.15406 13.5777 6.85625 13.3976 6.67618L12.151 5.42953C12.1094 5.38798 12.054 5.35335 11.9986 5.32564C11.9432 5.30487 11.8878 5.29102 11.8255 5.29102C11.7631 5.29102 11.7077 5.30487 11.6454 5.32564C11.59 5.34642 11.5484 5.38105 11.5069 5.41568C11.5 5.42261 11.5 5.42261 11.493 5.42261L10.2464 6.67618C10.0663 6.85625 10.0663 7.15406 10.2464 7.33413C10.4265 7.51421 10.7243 7.51421 10.9043 7.33413L11.3545 6.88396V8.06135H12.2895V6.88396Z" fill="#030A05"/>
<path d="M16.8191 10.9145C16.7914 10.9006 16.7567 10.8937 16.729 10.8868H16.7221C16.2304 10.7552 15.6832 10.6928 15.0461 10.6928C13.9795 10.6928 13.4739 11.0045 13.0168 11.3508C12.9198 11.4201 12.8506 11.4893 12.7813 11.5586L12.1234 12.2581C12.0541 12.3273 11.9433 12.3689 11.8256 12.3689C11.784 12.3689 11.6316 12.362 11.5277 12.2512L10.849 11.5378C10.7798 11.4616 10.6966 11.3993 10.6759 11.3854C10.1772 11.0045 9.67162 10.6928 8.60504 10.6928C7.96787 10.6928 7.42073 10.7552 6.92207 10.8868C6.89436 10.8937 6.85973 10.9006 6.83203 10.9145C6.83896 9.53624 6.97747 8.06104 9.89325 8.06104H11.3615V10.1942C11.3615 10.4504 11.5693 10.6582 11.8256 10.6582C12.0818 10.6582 12.2896 10.4504 12.2896 10.1942V8.06104H13.7579C16.6736 8.06104 16.8121 9.53624 16.8191 10.9145Z" fill="#030A05"/>
</svg>
