<svg width="29" height="28" viewBox="0 0 29 28" fill="none" xmlns="http://www.w3.org/2000/svg">
<rect x="0.5" width="28" height="28" rx="4" fill="#054753" fill-opacity="0.1"/>
<path d="M20.075 13.6087C19.6 13.4837 19.0416 13.417 18.375 13.417C17.45 13.417 17.1083 13.642 16.6333 14.0003C16.6083 14.017 16.5833 14.042 16.5583 14.067L15.7667 14.9087C15.1 15.6087 13.9 15.617 13.2333 14.9003L12.4416 14.067C12.4166 14.042 12.3916 14.017 12.3666 14.0003C11.8916 13.642 11.55 13.417 10.625 13.417C9.95832 13.417 9.39998 13.4837 8.92498 13.6087C6.94165 14.142 6.94165 15.717 6.94165 17.1003V17.8753C6.94165 19.967 6.94165 22.3337 11.4 22.3337H17.6C20.5583 22.3337 22.0583 20.8337 22.0583 17.8753V17.1003C22.0583 15.717 22.0583 14.142 20.075 13.6087ZM16.4416 19.3337H12.5583C12.2417 19.3337 11.9833 19.0753 11.9833 18.7503C11.9833 18.4253 12.2417 18.167 12.5583 18.167H16.4416C16.7583 18.167 17.0167 18.4253 17.0167 18.7503C17.0167 19.0753 16.7583 19.3337 16.4416 19.3337Z" fill="#054753"/>
<path d="M15.0583 7.58366L15.6 8.12533C15.8167 8.34199 16.175 8.34199 16.3917 8.12533C16.6083 7.90866 16.6083 7.55033 16.3917 7.33366L14.8917 5.83366C14.8417 5.78366 14.775 5.74199 14.7083 5.70866C14.6417 5.68366 14.575 5.66699 14.5 5.66699C14.425 5.66699 14.3583 5.68366 14.2833 5.70866C14.2167 5.73366 14.1667 5.77533 14.1167 5.81699C14.1083 5.82533 14.1083 5.82533 14.1 5.82533L12.6 7.33366C12.3833 7.55033 12.3833 7.90866 12.6 8.12533C12.8167 8.34199 13.175 8.34199 13.3917 8.12533L13.9333 7.58366V9.00033H15.0583V7.58366Z" fill="#054753"/>
<path d="M20.5084 12.4333C20.475 12.4167 20.4334 12.4083 20.4 12.4H20.3917C19.8 12.2417 19.1417 12.1667 18.375 12.1667C17.0917 12.1667 16.4834 12.5417 15.9334 12.9583C15.8167 13.0417 15.7334 13.125 15.65 13.2083L14.8584 14.05C14.775 14.1333 14.6417 14.1833 14.5 14.1833C14.45 14.1833 14.2667 14.175 14.1417 14.0417L13.325 13.1833C13.2417 13.0917 13.1417 13.0167 13.1167 13C12.5167 12.5417 11.9084 12.1667 10.625 12.1667C9.85837 12.1667 9.20003 12.2417 8.60003 12.4C8.5667 12.4083 8.52503 12.4167 8.4917 12.4333C8.50003 10.775 8.6667 9 12.175 9H13.9417V11.5667C13.9417 11.875 14.1917 12.125 14.5 12.125C14.8084 12.125 15.0584 11.875 15.0584 11.5667V9H16.825C20.3334 9 20.5 10.775 20.5084 12.4333Z" fill="#054753"/>
</svg>
