<svg width="28" height="29" viewBox="0 0 28 29" fill="none" xmlns="http://www.w3.org/2000/svg">
<path d="M14.0235 24.5841C11.3052 24.5841 8.58684 24.1524 6.00851 23.2891C5.02851 22.9507 4.28184 22.2624 3.95517 21.3641C3.61684 20.4657 3.73351 19.4741 4.27017 18.5874L5.61184 16.3591C5.89184 15.8924 6.14851 14.9591 6.14851 14.4107V11.0391C6.14851 6.69906 9.68351 3.16406 14.0235 3.16406C18.3635 3.16406 21.8985 6.69906 21.8985 11.0391V14.4107C21.8985 14.9474 22.1552 15.8924 22.4352 16.3707L23.7652 18.5874C24.2668 19.4274 24.3602 20.4424 24.0218 21.3641C23.6835 22.2857 22.9485 22.9857 22.0268 23.2891C19.4602 24.1524 16.7418 24.5841 14.0235 24.5841ZM14.0235 4.91406C10.6518 4.91406 7.89851 7.65573 7.89851 11.0391V14.4107C7.89851 15.2624 7.54851 16.5224 7.11684 17.2574L5.77517 19.4857C5.51851 19.9174 5.44851 20.3724 5.60017 20.7574C5.74017 21.1541 6.09017 21.4574 6.56851 21.6207C11.4452 23.2541 16.6135 23.2541 21.4902 21.6207C21.9102 21.4807 22.2368 21.1657 22.3885 20.7457C22.5402 20.3257 22.5052 19.8707 22.2718 19.4857L20.9302 17.2574C20.4868 16.4991 20.1485 15.2507 20.1485 14.3991V11.0391C20.1485 7.65573 17.4068 4.91406 14.0235 4.91406Z" fill="#303632"/>
<path d="M16.1934 5.22977C16.1117 5.22977 16.0301 5.2181 15.9484 5.19477C15.6101 5.10143 15.2834 5.03143 14.9684 4.98477C13.9767 4.85643 13.0201 4.92643 12.1217 5.19477C11.7951 5.29977 11.4451 5.19477 11.2234 4.94977C11.0017 4.70477 10.9317 4.35477 11.0601 4.03977C11.5384 2.81477 12.7051 2.00977 14.0351 2.00977C15.3651 2.00977 16.5317 2.8031 17.0101 4.03977C17.1267 4.35477 17.0684 4.70477 16.8467 4.94977C16.6717 5.13643 16.4267 5.22977 16.1934 5.22977Z" fill="#303632"/>
<path d="M14.0234 27.2441C12.8684 27.2441 11.7484 26.7775 10.9318 25.9608C10.1151 25.1441 9.64844 24.0241 9.64844 22.8691H11.3984C11.3984 23.5575 11.6784 24.2341 12.1684 24.7241C12.6584 25.2141 13.3351 25.4941 14.0234 25.4941C15.4701 25.4941 16.6484 24.3158 16.6484 22.8691H18.3984C18.3984 25.2841 16.4384 27.2441 14.0234 27.2441Z" fill="#303632"/>
</svg>
