<svg width="29" height="28" viewBox="0 0 29 28" fill="none" xmlns="http://www.w3.org/2000/svg">
<rect x="0.5" width="28" height="28" rx="4" fill="#FFF1F2"/>
<path d="M19.5001 11.775V16.225C19.5001 18.9916 17.5417 20.1166 15.1501 18.7416L14.0834 18.125C13.8251 17.975 13.6667 17.7 13.6667 17.4V10.6C13.6667 10.3 13.8251 10.025 14.0834 9.87498L15.1501 9.25831C17.5417 7.88331 19.5001 9.00831 19.5001 11.775Z" fill="#FF5D7A"/>
<path d="M12.8332 11.3253V16.6836C12.8332 17.0086 12.4832 17.2086 12.2082 17.042L11.2916 16.5086C8.89989 15.1336 8.89989 12.867 11.2916 11.492L12.2082 10.9586C12.4832 10.8003 12.8332 11.0003 12.8332 11.3253Z" fill="#FF5D7A"/>
</svg>
