<svg width="28" height="28" viewBox="0 0 28 28" fill="none" xmlns="http://www.w3.org/2000/svg">
<rect width="28" height="28" rx="4" fill="#FFA600" fill-opacity="0.1"/>
<path d="M7.25841 18.3169C7.10008 18.3169 6.94175 18.2585 6.81675 18.1335C5.67508 16.9835 5.04175 15.4669 5.04175 13.8585C5.04175 10.5169 7.75008 7.80018 11.0834 7.80018L16.1417 7.81685L15.2334 6.95018C14.9834 6.70852 14.9751 6.31685 15.2167 6.06685C15.4584 5.81685 15.8501 5.80852 16.1001 6.05018L18.1334 8.00018C18.3167 8.17518 18.3751 8.45018 18.2834 8.68352C18.1917 8.91685 17.9584 9.07518 17.7001 9.07518L11.0834 9.05852C8.44175 9.05852 6.29175 11.2169 6.29175 13.8669C6.29175 15.1419 6.79175 16.3502 7.70008 17.2585C7.94175 17.5002 7.94175 17.9002 7.70008 18.1419C7.57508 18.2585 7.41675 18.3169 7.25841 18.3169Z" fill="#FF9933"/>
<path d="M12.3333 22.1247C12.1749 22.1247 12.0249 22.0663 11.8999 21.9497L9.86658 19.9997C9.68325 19.8247 9.62492 19.5497 9.71658 19.3163C9.80825 19.083 10.0416 18.9247 10.2999 18.9247L16.9249 18.9413C19.5666 18.9413 21.7166 16.783 21.7166 14.133C21.7166 12.858 21.2166 11.6497 20.3083 10.7413C20.0666 10.4997 20.0666 10.0997 20.3083 9.85801C20.5499 9.61634 20.9499 9.61634 21.1916 9.85801C22.3333 11.008 22.9666 12.5247 22.9666 14.133C22.9666 17.4747 20.2583 20.1913 16.9249 20.1913L11.8666 20.1747L12.7749 21.0413C13.0249 21.283 13.0333 21.6747 12.7916 21.9247C12.6583 22.058 12.4999 22.1247 12.3333 22.1247Z" fill="#FF9933"/>
<path d="M11.4999 16.9163H16.4999C18.0999 16.9163 19.4166 15.608 19.4166 13.9997C19.4166 12.3997 18.1083 11.083 16.4999 11.083H11.4999C9.89992 11.083 8.58325 12.3913 8.58325 13.9997C8.58325 15.608 9.89159 16.9163 11.4999 16.9163Z" fill="#FF9933"/>
</svg>
