<svg width="15" height="15" viewBox="0 0 15 15" fill="none" xmlns="http://www.w3.org/2000/svg">
<path d="M12.0453 10.4944C11.7047 10.1537 11.1524 10.1537 10.8117 10.4944C10.4711 10.835 10.4711 11.3873 10.8117 11.7279L12.0453 10.4944ZM13.1377 14.0539C13.4783 14.3945 14.0306 14.3945 14.3712 14.0539C14.7119 13.7133 14.7119 13.161 14.3712 12.8204L13.1377 14.0539ZM10.8117 11.7279L13.1377 14.0539L14.3712 12.8204L12.0453 10.4944L10.8117 11.7279ZM6.77647 10.8203C4.36782 10.8203 2.41522 8.86775 2.41522 6.45909H0.670718C0.670718 9.83121 3.40436 12.5648 6.77647 12.5648V10.8203ZM11.1377 6.45909C11.1377 8.86775 9.18513 10.8203 6.77647 10.8203V12.5648C10.1486 12.5648 12.8822 9.83121 12.8822 6.45909H11.1377ZM6.77647 2.09784C9.18513 2.09784 11.1377 4.05044 11.1377 6.45909H12.8822C12.8822 3.08698 10.1486 0.353335 6.77647 0.353335V2.09784ZM6.77647 0.353335C3.40436 0.353335 0.670718 3.08698 0.670718 6.45909H2.41522C2.41522 4.05044 4.36782 2.09784 6.77647 2.09784V0.353335Z" fill="#3F556E"/>
</svg>
