<svg width="33" height="32" viewBox="0 0 33 32" fill="none" xmlns="http://www.w3.org/2000/svg">
<path d="M28.2075 17.4266C27.7009 17.4266 27.2742 17.0399 27.2075 16.5332C26.8875 13.5199 25.2609 10.7866 22.7542 9.05322C22.3009 8.73322 22.1942 8.11989 22.5009 7.66656C22.8209 7.21322 23.4475 7.10656 23.8875 7.41322C26.8742 9.47989 28.7942 12.7332 29.1809 16.3199C29.2342 16.8666 28.8475 17.3599 28.2875 17.4266C28.2742 17.4266 28.2342 17.4266 28.2075 17.4266Z" fill="#5E625F"/>
<path d="M5.36756 17.4934C5.32756 17.4934 5.3009 17.4934 5.2609 17.4934C4.71423 17.4267 4.31423 16.9334 4.36756 16.3867C4.72756 12.8 6.63423 9.56002 9.5809 7.46668C10.0342 7.14668 10.6609 7.25335 10.9809 7.70669C11.3009 8.16002 11.1942 8.78668 10.7409 9.10668C8.2609 10.8534 6.6609 13.5867 6.35423 16.6C6.31423 17.1067 5.87423 17.4934 5.36756 17.4934Z" fill="#5E625F"/>
<path d="M16.7941 30.1467C14.8208 30.1467 12.9408 29.6934 11.1808 28.8134C10.6875 28.56 10.4875 27.96 10.7408 27.4667C10.9941 26.9734 11.5941 26.7734 12.0875 27.0267C14.9675 28.48 18.4341 28.5067 21.3408 27.1067C21.8341 26.8667 22.4341 27.08 22.6741 27.5734C22.9141 28.0667 22.7008 28.6667 22.2075 28.9067C20.5008 29.7334 18.6875 30.1467 16.7941 30.1467Z" fill="#5E625F"/>
<path d="M16.7946 11.2534C14.1946 11.2534 12.0879 9.14675 12.0879 6.54675C12.0879 3.94675 14.1946 1.84009 16.7946 1.84009C19.3946 1.84009 21.5012 3.94675 21.5012 6.54675C21.5012 9.14675 19.3812 11.2534 16.7946 11.2534ZM16.7946 3.85342C15.3012 3.85342 14.0879 5.06675 14.0879 6.56009C14.0879 8.05342 15.3012 9.26675 16.7946 9.26675C18.2879 9.26675 19.5012 8.05342 19.5012 6.56009C19.5012 5.06675 18.2746 3.85342 16.7946 3.85342Z" fill="#5E625F"/>
<path d="M7.15442 27.5601C4.55442 27.5601 2.44775 25.4534 2.44775 22.8534C2.44775 20.2667 4.55442 18.1467 7.15442 18.1467C9.75442 18.1467 11.8611 20.2534 11.8611 22.8534C11.8611 25.4401 9.75442 27.5601 7.15442 27.5601ZM7.15442 20.1467C5.66109 20.1467 4.44775 21.3601 4.44775 22.8534C4.44775 24.3467 5.66109 25.5601 7.15442 25.5601C8.64775 25.5601 9.86109 24.3467 9.86109 22.8534C9.86109 21.3601 8.64775 20.1467 7.15442 20.1467Z" fill="#5E625F"/>
<path d="M26.2745 27.5601C23.6745 27.5601 21.5679 25.4534 21.5679 22.8534C21.5679 20.2667 23.6745 18.1467 26.2745 18.1467C28.8745 18.1467 30.9812 20.2534 30.9812 22.8534C30.9679 25.4401 28.8612 27.5601 26.2745 27.5601ZM26.2745 20.1467C24.7812 20.1467 23.5679 21.3601 23.5679 22.8534C23.5679 24.3467 24.7812 25.5601 26.2745 25.5601C27.7679 25.5601 28.9812 24.3467 28.9812 22.8534C28.9679 21.3601 27.7679 20.1467 26.2745 20.1467Z" fill="#5E625F"/>
</svg>
