<svg width="28" height="29" viewBox="0 0 28 29" fill="none" xmlns="http://www.w3.org/2000/svg">
<path d="M21.2218 21.3408H8.79682C7.64182 21.3408 6.53349 20.8508 5.75182 19.9992C4.97015 19.1475 4.5735 18.0041 4.66683 16.8491L5.63516 5.22916C5.67016 4.86749 5.54182 4.51749 5.29682 4.24916C5.05182 3.98083 4.71349 3.84082 4.35182 3.84082H2.3335C1.85516 3.84082 1.4585 3.44415 1.4585 2.96582C1.4585 2.48749 1.85516 2.09082 2.3335 2.09082H4.3635C5.21517 2.09082 6.02016 2.45248 6.59182 3.07082C6.90682 3.42082 7.14016 3.82916 7.26849 4.28416H21.8402C23.0185 4.28416 24.1035 4.75082 24.8968 5.59082C25.6785 6.44249 26.0752 7.55082 25.9818 8.72916L25.3518 17.4792C25.2235 19.6142 23.3568 21.3408 21.2218 21.3408ZM7.32683 6.02248L6.41683 16.9891C6.3585 17.6658 6.58016 18.3075 7.03516 18.8091C7.49016 19.3108 8.12015 19.5791 8.79682 19.5791H21.2218C22.4352 19.5791 23.5318 18.5525 23.6252 17.3392L24.2552 8.58916C24.3018 7.90083 24.0802 7.2475 23.6252 6.76917C23.1702 6.27916 22.5402 6.0108 21.8518 6.0108H7.32683V6.02248Z" fill="#303632"/>
<path d="M18.9583 27.1745C17.675 27.1745 16.625 26.1245 16.625 24.8411C16.625 23.5578 17.675 22.5078 18.9583 22.5078C20.2417 22.5078 21.2917 23.5578 21.2917 24.8411C21.2917 26.1245 20.2417 27.1745 18.9583 27.1745ZM18.9583 24.2578C18.6317 24.2578 18.375 24.5145 18.375 24.8411C18.375 25.1678 18.6317 25.4245 18.9583 25.4245C19.285 25.4245 19.5417 25.1678 19.5417 24.8411C19.5417 24.5145 19.285 24.2578 18.9583 24.2578Z" fill="#303632"/>
<path d="M9.62484 27.1745C8.3415 27.1745 7.2915 26.1245 7.2915 24.8411C7.2915 23.5578 8.3415 22.5078 9.62484 22.5078C10.9082 22.5078 11.9582 23.5578 11.9582 24.8411C11.9582 26.1245 10.9082 27.1745 9.62484 27.1745ZM9.62484 24.2578C9.29817 24.2578 9.0415 24.5145 9.0415 24.8411C9.0415 25.1678 9.29817 25.4245 9.62484 25.4245C9.9515 25.4245 10.2082 25.1678 10.2082 24.8411C10.2082 24.5145 9.9515 24.2578 9.62484 24.2578Z" fill="#303632"/>
<path d="M24.5 10.8408H10.5C10.0217 10.8408 9.625 10.4442 9.625 9.96582C9.625 9.48749 10.0217 9.09082 10.5 9.09082H24.5C24.9783 9.09082 25.375 9.48749 25.375 9.96582C25.375 10.4442 24.9783 10.8408 24.5 10.8408Z" fill="#303632"/>
</svg>
