<svg width="33" height="32" viewBox="0 0 33 32" fill="none" xmlns="http://www.w3.org/2000/svg">
<path d="M16.8611 30.2934H8.56777C4.92777 30.2934 2.3811 27.7467 2.3811 24.1067V13.7467C2.3811 10.1067 4.92777 7.56006 8.56777 7.56006H13.6744C15.3011 7.56006 16.9011 8.22673 18.0478 9.37339L21.2344 12.5467C22.3944 13.7067 23.0478 15.2934 23.0478 16.9201V24.1067C23.0478 27.7467 20.5011 30.2934 16.8611 30.2934ZM8.56777 9.56006C6.0211 9.56006 4.3811 11.2001 4.3811 13.7467V24.1067C4.3811 26.6534 6.0211 28.2934 8.56777 28.2934H16.8611C19.4078 28.2934 21.0478 26.6534 21.0478 24.1067V16.9201C21.0478 15.8134 20.5944 14.7467 19.8211 13.9601L16.6344 10.7867C15.8478 10.0001 14.7678 9.56006 13.6744 9.56006H8.56777Z" fill="#5E625F"/>
<path d="M24.8611 24.3734H22.0478C21.5011 24.3734 21.0478 23.92 21.0478 23.3734V16.92C21.0478 15.8134 20.5944 14.7467 19.8211 13.96L16.6344 10.7867C15.8478 10 14.7678 9.56004 13.6744 9.56004H11.3811C10.8344 9.56004 10.3811 9.10671 10.3811 8.56004V7.81338C10.3811 4.17338 12.9278 1.62671 16.5678 1.62671H21.6744C23.3011 1.62671 24.9011 2.29338 26.0478 3.44004L29.2344 6.62671C30.4078 7.80004 31.0478 9.34671 31.0478 11V18.1867C31.0478 21.8267 28.5011 24.3734 24.8611 24.3734ZM23.0478 22.3734H24.8611C27.4078 22.3734 29.0478 20.7334 29.0478 18.1867V11C29.0478 9.88004 28.6078 8.82671 27.8211 8.04004L24.6344 4.85338C23.8611 4.08004 22.7811 3.62671 21.6744 3.62671H16.5678C14.1144 3.62671 12.4878 5.16004 12.3811 7.56004H13.6744C15.3011 7.56004 16.9011 8.22671 18.0478 9.37338L21.2344 12.5467C22.3944 13.7067 23.0478 15.2934 23.0478 16.92V22.3734Z" fill="#5E625F"/>
</svg>
