<svg width="28" height="29" viewBox="0 0 28 29" fill="none" xmlns="http://www.w3.org/2000/svg">
<path d="M19.8335 25.4242H8.16683C3.9085 25.4242 1.4585 22.9742 1.4585 18.7158V10.5492C1.4585 6.29082 3.9085 3.84082 8.16683 3.84082H19.8335C24.0918 3.84082 26.5418 6.29082 26.5418 10.5492V18.7158C26.5418 22.9742 24.0918 25.4242 19.8335 25.4242ZM8.16683 5.59082C4.83016 5.59082 3.2085 7.21249 3.2085 10.5492V18.7158C3.2085 22.0525 4.83016 23.6742 8.16683 23.6742H19.8335C23.1702 23.6742 24.7918 22.0525 24.7918 18.7158V10.5492C24.7918 7.21249 23.1702 5.59082 19.8335 5.59082H8.16683Z" fill="#303632"/>
<path d="M13.9996 15.6478C13.0196 15.6478 12.0279 15.3444 11.2696 14.7261L7.61791 11.8094C7.24458 11.5061 7.17458 10.9578 7.47792 10.5844C7.78125 10.2111 8.32959 10.1411 8.70292 10.4444L12.3546 13.3611C13.2412 14.0728 14.7462 14.0728 15.6329 13.3611L19.2846 10.4444C19.6579 10.1411 20.2179 10.1994 20.5096 10.5844C20.8129 10.9578 20.7546 11.5178 20.3696 11.8094L16.7179 14.7261C15.9712 15.3444 14.9796 15.6478 13.9996 15.6478Z" fill="#303632"/>
</svg>
