<svg width="14" height="13" viewBox="0 0 14 13" fill="none" xmlns="http://www.w3.org/2000/svg">
<path d="M6.1978 0.496073C6.37498 -0.0492512 7.14647 -0.0492523 7.32366 0.496072L8.4883 4.08046C8.56754 4.32434 8.7948 4.48945 9.05123 4.48945H12.8201C13.3935 4.48945 13.6319 5.22318 13.168 5.56021L10.1189 7.77549C9.91147 7.92621 9.82466 8.19337 9.9039 8.43725L11.0685 12.0216C11.2457 12.567 10.6216 13.0204 10.1577 12.6834L7.10864 10.4681C6.90118 10.3174 6.62027 10.3174 6.41282 10.4681L3.36375 12.6834C2.89987 13.0204 2.27573 12.567 2.45291 12.0216L3.61755 8.43725C3.69679 8.19337 3.60998 7.92621 3.40253 7.77549L0.353469 5.56021C-0.110412 5.22318 0.127991 4.48945 0.701378 4.48945H4.47023C4.72665 4.48945 4.95392 4.32434 5.03316 4.08046L6.1978 0.496073Z" fill="#E2E2E2"/>
</svg>
