<svg width="14" height="13" viewBox="0 0 14 13" fill="none" xmlns="http://www.w3.org/2000/svg">
<path d="M6.25712 0.496073C6.43431 -0.0492512 7.2058 -0.0492523 7.38298 0.496072L8.54762 4.08046C8.62686 4.32434 8.85413 4.48945 9.11055 4.48945H12.8794C13.4528 4.48945 13.6912 5.22318 13.2273 5.56021L10.1783 7.77549C9.9708 7.92621 9.88399 8.19337 9.96323 8.43725L11.1279 12.0216C11.3051 12.567 10.6809 13.0204 10.217 12.6834L7.16796 10.4681C6.96051 10.3174 6.6796 10.3174 6.47214 10.4681L3.42308 12.6834C2.9592 13.0204 2.33505 12.567 2.51224 12.0216L3.67688 8.43725C3.75612 8.19337 3.66931 7.92621 3.46186 7.77549L0.412795 5.56021C-0.0510856 5.22318 0.187317 4.48945 0.760705 4.48945H4.52955C4.78598 4.48945 5.01324 4.32434 5.09248 4.08046L6.25712 0.496073Z" fill="#FF9933"/>
</svg>
