<svg width="32" height="32" viewBox="0 0 32 32" fill="none" xmlns="http://www.w3.org/2000/svg">
<path d="M15.9998 2.66699C8.65317 2.66699 2.6665 8.65366 2.6665 16.0003C2.6665 23.347 8.65317 29.3337 15.9998 29.3337C23.3465 29.3337 29.3332 23.347 29.3332 16.0003C29.3332 8.65366 23.3465 2.66699 15.9998 2.66699ZM22.3732 12.9337L14.8132 20.4937C14.6265 20.6803 14.3732 20.787 14.1065 20.787C13.8398 20.787 13.5865 20.6803 13.3998 20.4937L9.6265 16.7203C9.23984 16.3337 9.23984 15.6937 9.6265 15.307C10.0132 14.9203 10.6532 14.9203 11.0398 15.307L14.1065 18.3737L20.9598 11.5203C21.3465 11.1337 21.9865 11.1337 22.3732 11.5203C22.7598 11.907 22.7598 12.5337 22.3732 12.9337Z" fill="#030A05"/>
</svg>
